<svg version="1.1" id="Layer_1" xmlns="http://www.w3.org/2000/svg" xmlns:xlink="http://www.w3.org/1999/xlink" x="0px" y="0px"
	 width="100%" viewBox="0 0 4500 4500" enable-background="new 0 0 4500 4500" xml:space="preserve">
<path fill="#FFFFFF" opacity="1.000000" stroke="none" 
	d="
M4504.000000,1596.000000 
	C4504.000000,2566.559082 4504.000000,3535.118164 4504.000000,4503.838867 
	C3004.274170,4503.838867 1504.548218,4503.838867 4.411194,4503.838867 
	C4.411194,3004.440674 4.411194,1504.881470 4.411194,4.661042 
	C1503.999756,4.661042 3003.999756,4.661042 4504.000000,4.661042 
	C4504.000000,534.118652 4504.000000,1064.059326 4504.000000,1596.000000 
M706.982361,2726.000000 
	C706.982666,2883.976807 707.172241,3041.953613 706.880554,3199.929932 
	C706.778625,3255.136963 715.137512,3308.766113 734.103210,3360.591553 
	C779.377808,3484.307861 862.034485,3574.196777 980.649048,3630.981445 
	C1013.683838,3646.796387 1047.430298,3661.121582 1080.804810,3676.230957 
	C1293.189697,3772.383057 1505.572144,3868.540771 1717.934937,3964.741943 
	C1892.679565,4043.902344 2067.437744,4123.033691 2242.028320,4202.533203 
	C2253.259033,4207.647461 2262.456543,4208.224609 2273.951904,4202.972656 
	C2383.008301,4153.148438 2492.345459,4103.937988 2601.568359,4054.477051 
	C2736.275391,3993.476807 2870.942627,3932.389160 3005.640869,3871.369385 
	C3181.597412,3791.659424 3357.695801,3712.259766 3533.483154,3632.177979 
	C3631.423584,3587.560059 3705.527832,3516.989502 3756.153076,3422.079102 
	C3793.925537,3351.265137 3810.909912,3275.101074 3810.921387,3195.212158 
	C3811.052979,2292.641846 3811.004883,1390.071533 3811.003662,487.501251 
	C3811.003662,482.835114 3811.274170,478.145477 3810.892334,473.510101 
	C3810.578369,469.698090 3809.482666,465.950439 3808.610840,461.555847 
	C3770.510254,455.666473 3733.050293,449.874786 3695.590088,444.086090 
	C3654.802246,437.783112 3614.018066,431.457123 3573.225098,425.188507 
	C3527.821289,418.211304 3482.414551,411.253601 3436.999512,404.349701 
	C3388.953613,397.045929 3340.906494,389.746521 3292.841064,382.572205 
	C3242.806641,375.103943 3192.818359,367.270111 3142.681885,360.552948 
	C3094.519531,354.100281 3046.219971,348.632690 2997.930664,343.176758 
	C2952.289062,338.020020 2906.627197,332.949280 2860.891602,328.742035 
	C2811.840088,324.229767 2762.718750,320.378082 2713.577881,316.962891 
	C2667.760498,313.778717 2621.884277,311.419556 2576.020752,308.941742 
	C2547.438232,307.397583 2518.843506,305.850342 2490.233154,305.106506 
	C2426.981934,303.462006 2363.722900,301.780487 2300.456787,301.173462 
	C2259.186279,300.777466 2217.914795,300.945129 2176.603516,302.570251 
	C2119.391113,304.820862 2062.054688,303.096741 2004.834961,306.842316 
	C1974.282959,308.842255 1943.635742,309.345276 1913.060303,311.042206 
	C1869.189941,313.477020 1825.316406,315.985352 1781.497681,319.191376 
	C1725.055786,323.321045 1668.660767,328.102661 1612.258423,332.757416 
	C1596.998779,334.016693 1581.770996,335.707947 1566.552979,337.417877 
	C1536.123169,340.837006 1505.703857,344.352936 1475.292114,347.929382 
	C1448.842285,351.039917 1422.370728,354.005829 1395.977661,357.548096 
	C1362.995117,361.974792 1330.075195,366.871094 1297.142700,371.664734 
	C1256.957886,377.514069 1216.770142,383.346436 1176.617432,389.409515 
	C1135.807739,395.571838 1095.044678,402.041748 1054.251099,408.311676 
	C1008.187988,415.391510 962.113159,422.394806 916.044434,429.438385 
	C866.034607,437.084473 816.017395,444.682739 766.021362,452.417847 
	C747.061584,455.351196 728.151794,458.607697 710.120911,461.568817 
	C708.814575,464.019745 707.673218,465.161102 707.672791,466.302917 
	C707.391479,1218.201904 707.186829,1970.100952 706.982361,2726.000000 
z"/>
<path fill="#577D99" opacity="1.000000" stroke="none" 
	d="
M706.981873,2724.000000 
	C707.186829,1970.100952 707.391479,1218.201904 707.672791,466.302917 
	C707.673218,465.161102 708.814575,464.019745 710.120911,461.568817 
	C728.151794,458.607697 747.061584,455.351196 766.021362,452.417847 
	C816.017395,444.682739 866.034607,437.084473 916.044434,429.438385 
	C962.113159,422.394806 1008.187988,415.391510 1054.251099,408.311676 
	C1095.044678,402.041748 1135.807739,395.571838 1176.617432,389.409515 
	C1216.770142,383.346436 1256.957886,377.514069 1297.142700,371.664734 
	C1330.075195,366.871094 1362.995117,361.974792 1395.977661,357.548096 
	C1422.370728,354.005829 1448.842285,351.039917 1475.292114,347.929382 
	C1505.703857,344.352936 1536.123169,340.837006 1566.552979,337.417877 
	C1581.770996,335.707947 1596.998779,334.016693 1612.258423,332.757416 
	C1668.660767,328.102661 1725.055786,323.321045 1781.497681,319.191376 
	C1825.316406,315.985352 1869.189941,313.477020 1913.060303,311.042206 
	C1943.635742,309.345276 1974.282959,308.842255 2004.834961,306.842316 
	C2062.054688,303.096741 2119.391113,304.820862 2176.603516,302.570251 
	C2217.914795,300.945129 2259.186279,300.777466 2300.456787,301.173462 
	C2363.722900,301.780487 2426.981934,303.462006 2490.233154,305.106506 
	C2518.843506,305.850342 2547.438232,307.397583 2576.020752,308.941742 
	C2621.884277,311.419556 2667.760498,313.778717 2713.577881,316.962891 
	C2762.718750,320.378082 2811.840088,324.229767 2860.891602,328.742035 
	C2906.627197,332.949280 2952.289062,338.020020 2997.930664,343.176758 
	C3046.219971,348.632690 3094.519531,354.100281 3142.681885,360.552948 
	C3192.818359,367.270111 3242.806641,375.103943 3292.841064,382.572205 
	C3340.906494,389.746521 3388.953613,397.045929 3436.999512,404.349701 
	C3482.414551,411.253601 3527.821289,418.211304 3573.225098,425.188507 
	C3614.018066,431.457123 3654.802246,437.783112 3695.590088,444.086090 
	C3733.050293,449.874786 3770.510254,455.666473 3808.610840,461.555847 
	C3809.482666,465.950439 3810.578369,469.698090 3810.892334,473.510101 
	C3811.274170,478.145477 3811.003662,482.835114 3811.003662,487.501251 
	C3811.004883,1390.071533 3811.052979,2292.641846 3810.921387,3195.212158 
	C3810.909912,3275.101074 3793.925537,3351.265137 3756.153076,3422.079102 
	C3705.527832,3516.989502 3631.423584,3587.560059 3533.483154,3632.177979 
	C3357.695801,3712.259766 3181.597412,3791.659424 3005.640869,3871.369385 
	C2870.942627,3932.389160 2736.275391,3993.476807 2601.568359,4054.477051 
	C2492.345459,4103.937988 2383.008301,4153.148438 2273.951904,4202.972656 
	C2262.456543,4208.224609 2253.259033,4207.647461 2242.028320,4202.533203 
	C2067.437744,4123.033691 1892.679565,4043.902344 1717.934937,3964.741943 
	C1505.572144,3868.540771 1293.189697,3772.383057 1080.804810,3676.230957 
	C1047.430298,3661.121582 1013.683838,3646.796387 980.649048,3630.981445 
	C862.034485,3574.196777 779.377808,3484.307861 734.103210,3360.591553 
	C715.137512,3308.766113 706.778625,3255.136963 706.880554,3199.929932 
	C707.172241,3041.953613 706.982666,2883.976807 706.981873,2724.000000 
M2506.920410,3864.329590 
	C2541.561523,3848.901367 2576.267090,3833.615967 2610.831055,3818.017822 
	C2707.285645,3774.489990 2803.694580,3730.860840 2900.096191,3687.216064 
	C2961.333740,3659.491455 3022.547852,3631.715332 3083.696533,3603.796387 
	C3088.234131,3601.724854 3094.324463,3601.181885 3095.983154,3594.556885 
	C3095.264404,3592.892090 3094.725586,3590.949707 3093.684570,3589.330322 
	C3026.356201,3484.590088 2958.997314,3379.869629 2891.563232,3275.197510 
	C2889.951172,3272.695557 2888.797852,3269.020996 2883.270752,3269.729004 
	C2879.639648,3275.120850 2875.482666,3281.060059 2871.561035,3287.151123 
	C2770.281006,3444.463623 2669.020996,3601.788818 2567.769043,3759.119629 
	C2548.310059,3789.356689 2528.825195,3819.577881 2509.557129,3849.936035 
	C2506.865479,3854.176758 2502.031006,3857.915771 2502.555176,3863.822266 
	C2502.498047,3864.637939 2502.440918,3865.453857 2502.384033,3866.269531 
	C2502.900635,3865.486572 2503.417236,3864.703613 2506.920410,3864.329590 
M2219.897705,1957.859985 
	C2232.020996,1938.857300 2243.889160,1919.680908 2257.802002,1899.708130 
	C2272.969727,1923.186035 2287.041260,1944.969849 2301.115723,1966.751587 
	C2314.858643,1988.020142 2328.646973,2009.259521 2342.337646,2030.561646 
	C2356.389160,2052.424805 2370.312988,2074.370361 2384.355713,2096.239502 
	C2398.037598,2117.546875 2411.813232,2138.794434 2425.521729,2160.084717 
	C2439.590088,2181.934326 2453.625000,2203.805664 2467.679443,2225.664062 
	C2481.375488,2246.964355 2495.064697,2268.269043 2508.781494,2289.556152 
	C2522.859863,2311.405029 2536.979004,2333.227539 2551.059326,2355.075439 
	C2564.778076,2376.362549 2578.474121,2397.664551 2592.171387,2418.965820 
	C2606.228516,2440.825928 2620.264893,2462.699707 2634.329834,2484.554932 
	C2648.033203,2505.848389 2661.786621,2527.109863 2675.471436,2548.415283 
	C2689.516602,2570.281982 2703.474854,2592.204346 2717.527344,2614.066406 
	C2731.219482,2635.368164 2744.997070,2656.614502 2758.709717,2677.903076 
	C2772.782471,2699.750488 2786.821289,2721.619629 2800.875977,2743.479004 
	C2814.571289,2764.779785 2828.085449,2786.200195 2842.014404,2807.347168 
	C2856.222412,2828.917725 2869.039795,2851.454102 2885.733154,2873.565674 
	C2899.597168,2853.372314 2911.533691,2834.224121 2923.691406,2815.221680 
	C2935.902588,2796.135254 2948.219727,2777.116699 2960.480713,2758.062012 
	C2972.380615,2739.568359 2984.257324,2721.059326 2996.164062,2702.569824 
	C3008.431885,2683.520020 3020.730225,2664.489746 3033.003418,2645.443359 
	C3045.274902,2626.398438 3057.535400,2607.346436 3069.794189,2588.293457 
	C3082.053223,2569.240234 3094.296143,2550.176514 3106.559814,2531.126465 
	C3118.823975,2512.075684 3131.119873,2493.045410 3143.375732,2473.989014 
	C3155.630859,2454.933105 3167.838135,2435.846680 3180.095703,2416.792480 
	C3191.993652,2398.297363 3203.944580,2379.836182 3215.843750,2361.341797 
	C3228.104492,2342.285889 3240.326172,2323.204834 3252.572754,2304.139893 
	C3264.819092,2285.075928 3276.850586,2265.869385 3289.390137,2247.000000 
	C3301.783936,2228.350098 3312.599854,2208.577393 3327.330078,2190.568359 
	C3334.208740,2194.927246 3336.811768,2201.201660 3340.294678,2206.606201 
	C3392.279541,2287.261475 3444.197998,2367.958984 3496.108398,2448.662354 
	C3527.112061,2496.862305 3558.027100,2545.119629 3589.155518,2593.238770 
	C3591.346680,2596.626221 3592.379150,2602.602295 3598.936523,2600.786377 
	C3600.918701,2566.138672 3600.147705,660.517456 3598.134521,644.881104 
	C3588.667725,638.988770 3577.583740,640.146606 3567.188965,638.466431 
	C3520.523682,630.923706 3473.811768,623.662903 3427.084229,616.513000 
	C3379.042725,609.162048 3330.960205,602.079346 3282.901611,594.839417 
	C3233.529785,587.401550 3184.238525,579.381653 3134.776611,572.603821 
	C3087.291504,566.096741 3039.675537,560.475952 2992.040039,555.154297 
	C2933.821289,548.650269 2875.575439,542.286499 2817.242432,536.939575 
	C2765.535645,532.200134 2713.723633,528.465027 2661.902832,525.153381 
	C2610.749756,521.884338 2559.542969,519.337158 2508.330566,517.154480 
	C2464.422607,515.283203 2420.478516,514.202454 2376.541748,513.107544 
	C2351.893066,512.493286 2327.226318,512.280701 2302.569580,512.374634 
	C2239.953369,512.613281 2177.333740,511.551086 2114.735107,514.844360 
	C2072.849121,517.047913 2030.860596,517.244629 1988.951904,519.103333 
	C1936.402954,521.433960 1883.869141,524.225403 1831.365479,527.420105 
	C1786.839111,530.129517 1742.358276,533.606812 1697.871094,536.928650 
	C1681.937622,538.118347 1666.031616,539.720032 1650.135864,541.356812 
	C1617.026245,544.766052 1583.923706,548.248901 1550.833862,551.844238 
	C1523.031006,554.865112 1495.209229,557.767578 1467.469849,561.302307 
	C1432.477295,565.761230 1397.531372,570.612549 1362.616455,575.649353 
	C1312.536743,582.873718 1262.486938,590.310974 1212.455200,597.861755 
	C1174.273315,603.624146 1136.155762,609.813171 1097.979858,615.616333 
	C1042.031250,624.120911 986.046692,632.389648 930.110352,640.973450 
	C925.811646,641.633118 921.772949,643.987366 917.251160,645.690430 
	C917.251160,1313.309082 917.250244,1979.913940 917.359253,2646.518799 
	C917.359375,2647.332275 919.002075,2648.145264 921.155029,2650.145264 
	C952.836060,2601.419189 983.926147,2552.653320 1015.252136,2504.043701 
	C1047.019165,2454.750244 1078.668213,2405.380371 1110.477051,2356.113770 
	C1141.857666,2307.510010 1172.658081,2258.522461 1205.155396,2209.677246 
	C1212.329468,2215.229492 1215.557739,2221.909668 1219.448730,2227.943359 
	C1249.063110,2273.865479 1278.518921,2319.889893 1308.077881,2365.847900 
	C1381.979004,2480.748535 1455.899048,2595.636963 1529.831421,2710.517578 
	C1560.484497,2758.148193 1591.139160,2805.778564 1621.945068,2853.310547 
	C1625.031860,2858.073486 1626.760620,2864.576416 1635.516235,2865.725342 
	C1829.782349,2564.365234 2023.774536,2262.145752 2219.897705,1957.859985 
M2244.516846,3821.395508 
	C2250.479004,3828.180420 2252.669189,3838.027344 2261.720459,3843.491211 
	C2265.852295,3837.309326 2269.615723,3831.858154 2273.199219,3826.291260 
	C2366.937988,3680.643311 2460.651123,3534.978760 2554.383789,3389.326904 
	C2618.193848,3290.172363 2682.075928,3191.063965 2745.746826,3091.820068 
	C2750.317871,3084.695068 2756.688721,3078.311523 2758.006348,3067.742188 
	C2592.097412,2809.810059 2425.730957,2551.037109 2258.058105,2290.730225 
	C2253.443604,2297.256348 2249.867676,2301.926758 2246.695557,2306.856689 
	C2145.757812,2463.716797 2044.877930,2620.614258 1943.947510,2777.479248 
	C1885.549927,2868.240234 1827.061646,2958.943359 1768.688110,3049.719971 
	C1765.175781,3055.181885 1760.230713,3060.080322 1760.075806,3067.786377 
	C1762.710693,3072.066895 1765.416626,3076.637939 1768.288330,3081.102539 
	C1859.102539,3222.289551 1949.914917,3363.478271 2040.766357,3504.641602 
	C2108.189209,3609.401367 2175.666016,3714.126953 2244.516846,3821.395508 
M3143.179199,2865.142334 
	C3099.246338,2933.385986 3055.313232,3001.629883 3011.805420,3069.213135 
	C3024.812988,3093.514404 3283.760010,3494.853760 3294.599121,3507.516357 
	C3298.523682,3506.008789 3302.867676,3504.582764 3307.010010,3502.710693 
	C3349.480225,3483.518066 3391.930664,3464.281250 3434.354004,3444.985596 
	C3443.438232,3440.854004 3452.718994,3437.007324 3461.356934,3432.064453 
	C3551.061768,3380.728760 3596.854004,3302.690674 3599.428955,3199.942627 
	C3600.947510,3139.342773 3599.401855,3078.671631 3599.955566,3018.038818 
	C3600.071289,3005.357178 3596.592041,2995.028076 3589.804443,2984.621826 
	C3557.053467,2934.413086 3524.773193,2883.896729 3492.336914,2833.482910 
	C3440.438477,2752.820801 3388.559814,2672.146240 3336.620850,2591.510498 
	C3334.236328,2587.808838 3331.342285,2584.435059 3328.973145,2581.290039 
	C3326.918457,2582.013428 3326.054443,2582.038818 3325.788086,2582.450684 
	C3265.389648,2675.839600 3205.033203,2769.255615 3143.179199,2865.142334 
M1295.894409,3393.918213 
	C1319.303345,3357.489014 1342.696655,3321.049561 1366.125488,3284.633057 
	C1389.556396,3248.213623 1413.122803,3211.880859 1436.445312,3175.392090 
	C1459.713501,3138.988770 1483.688965,3103.021484 1506.351440,3065.784424 
	C1502.370728,3059.184082 1499.099243,3053.445557 1495.533325,3047.895996 
	C1460.235840,2992.964844 1424.891602,2938.063721 1389.556885,2883.156494 
	C1331.870117,2793.516113 1274.215088,2703.855225 1216.393188,2614.302002 
	C1213.397705,2609.662354 1211.556641,2603.571533 1204.956665,2601.010498 
	C1201.225708,2606.400391 1197.691528,2611.202881 1194.469849,2616.206787 
	C1161.289673,2667.742920 1128.179810,2719.323975 1095.011963,2770.867920 
	C1039.129761,2857.710693 983.346375,2944.617920 927.164001,3031.266113 
	C919.967712,3042.364502 916.515686,3053.470947 916.797791,3066.729248 
	C917.449951,3097.374512 916.921631,3128.043701 917.032166,3158.702637 
	C917.116089,3181.995605 916.679810,3205.253418 919.254883,3228.539307 
	C922.513489,3258.004883 930.019714,3286.107422 942.740723,3312.763184 
	C970.181763,3370.264648 1012.768372,3412.765869 1070.625977,3439.517090 
	C1117.772095,3461.315918 1165.204468,3482.496338 1212.534546,3503.896484 
	C1215.451416,3505.215332 1218.583862,3506.057617 1222.702026,3507.502686 
	C1246.767456,3470.119385 1270.524292,3433.215576 1295.894409,3393.918213 
M1481.723877,3495.682373 
	C1471.286621,3511.942627 1460.783081,3528.160645 1450.430298,3544.474609 
	C1439.835571,3561.169678 1428.193604,3577.251465 1418.444336,3595.685303 
	C1422.367310,3598.070068 1424.946899,3600.030518 1427.824707,3601.332031 
	C1623.811035,3689.965576 1819.820068,3778.549072 2015.871826,3867.037842 
	C2016.690552,3867.406982 2018.154663,3866.346680 2019.319458,3865.949219 
	C2019.254272,3864.705566 2019.644287,3863.169678 2019.059692,3862.259521 
	C1892.338257,3664.927979 1765.551880,3467.637939 1638.720337,3270.376953 
	C1637.354980,3268.253174 1635.375732,3266.524414 1633.946533,3264.908936 
	C1632.526611,3265.178223 1631.518311,3265.072510 1631.267212,3265.459229 
	C1581.929199,3341.377930 1532.644653,3417.331543 1481.723877,3495.682373 
z"/>
<path fill="#FFFFFF" opacity="1.000000" stroke="none" 
	d="
M2219.096436,1959.063599 
	C2023.774536,2262.145752 1829.782349,2564.365234 1635.516235,2865.725342 
	C1626.760620,2864.576416 1625.031860,2858.073486 1621.945068,2853.310547 
	C1591.139160,2805.778564 1560.484497,2758.148193 1529.831421,2710.517578 
	C1455.899048,2595.636963 1381.979004,2480.748535 1308.077881,2365.847900 
	C1278.518921,2319.889893 1249.063110,2273.865479 1219.448730,2227.943359 
	C1215.557739,2221.909668 1212.329468,2215.229492 1205.155396,2209.677246 
	C1172.658081,2258.522461 1141.857666,2307.510010 1110.477051,2356.113770 
	C1078.668213,2405.380371 1047.019165,2454.750244 1015.252136,2504.043701 
	C983.926147,2552.653320 952.836060,2601.419189 921.155029,2650.145264 
	C919.002075,2648.145264 917.359375,2647.332275 917.359253,2646.518799 
	C917.250244,1979.913940 917.251160,1313.309082 917.251160,645.690430 
	C921.772949,643.987366 925.811646,641.633118 930.110352,640.973450 
	C986.046692,632.389648 1042.031250,624.120911 1097.979858,615.616333 
	C1136.155762,609.813171 1174.273315,603.624146 1212.455200,597.861755 
	C1262.486938,590.310974 1312.536743,582.873718 1362.616455,575.649353 
	C1397.531372,570.612549 1432.477295,565.761230 1467.469849,561.302307 
	C1495.209229,557.767578 1523.031006,554.865112 1550.833862,551.844238 
	C1583.923706,548.248901 1617.026245,544.766052 1650.135864,541.356812 
	C1666.031616,539.720032 1681.937622,538.118347 1697.871094,536.928650 
	C1742.358276,533.606812 1786.839111,530.129517 1831.365479,527.420105 
	C1883.869141,524.225403 1936.402954,521.433960 1988.951904,519.103333 
	C2030.860596,517.244629 2072.849121,517.047913 2114.735107,514.844360 
	C2177.333740,511.551086 2239.953369,512.613281 2302.569580,512.374634 
	C2327.226318,512.280701 2351.893066,512.493286 2376.541748,513.107544 
	C2420.478516,514.202454 2464.422607,515.283203 2508.330566,517.154480 
	C2559.542969,519.337158 2610.749756,521.884338 2661.902832,525.153381 
	C2713.723633,528.465027 2765.535645,532.200134 2817.242432,536.939575 
	C2875.575439,542.286499 2933.821289,548.650269 2992.040039,555.154297 
	C3039.675537,560.475952 3087.291504,566.096741 3134.776611,572.603821 
	C3184.238525,579.381653 3233.529785,587.401550 3282.901611,594.839417 
	C3330.960205,602.079346 3379.042725,609.162048 3427.084229,616.513000 
	C3473.811768,623.662903 3520.523682,630.923706 3567.188965,638.466431 
	C3577.583740,640.146606 3588.667725,638.988770 3598.134521,644.881104 
	C3600.147705,660.517456 3600.918701,2566.138672 3598.936523,2600.786377 
	C3592.379150,2602.602295 3591.346680,2596.626221 3589.155518,2593.238770 
	C3558.027100,2545.119629 3527.112061,2496.862305 3496.108398,2448.662354 
	C3444.197998,2367.958984 3392.279541,2287.261475 3340.294678,2206.606201 
	C3336.811768,2201.201660 3334.208740,2194.927246 3327.330078,2190.568359 
	C3312.599854,2208.577393 3301.783936,2228.350098 3289.390137,2247.000000 
	C3276.850586,2265.869385 3264.819092,2285.075928 3252.572754,2304.139893 
	C3240.326172,2323.204834 3228.104492,2342.285889 3215.843750,2361.341797 
	C3203.944580,2379.836182 3191.993652,2398.297363 3180.095703,2416.792480 
	C3167.838135,2435.846680 3155.630859,2454.933105 3143.375732,2473.989014 
	C3131.119873,2493.045410 3118.823975,2512.075684 3106.559814,2531.126465 
	C3094.296143,2550.176514 3082.053223,2569.240234 3069.794189,2588.293457 
	C3057.535400,2607.346436 3045.274902,2626.398438 3033.003418,2645.443359 
	C3020.730225,2664.489746 3008.431885,2683.520020 2996.164062,2702.569824 
	C2984.257324,2721.059326 2972.380615,2739.568359 2960.480713,2758.062012 
	C2948.219727,2777.116699 2935.902588,2796.135254 2923.691406,2815.221680 
	C2911.533691,2834.224121 2899.597168,2853.372314 2885.733154,2873.565674 
	C2869.039795,2851.454102 2856.222412,2828.917725 2842.014404,2807.347168 
	C2828.085449,2786.200195 2814.571289,2764.779785 2800.875977,2743.479004 
	C2786.821289,2721.619629 2772.782471,2699.750488 2758.709717,2677.903076 
	C2744.997070,2656.614502 2731.219482,2635.368164 2717.527344,2614.066406 
	C2703.474854,2592.204346 2689.516602,2570.281982 2675.471436,2548.415283 
	C2661.786621,2527.109863 2648.033203,2505.848389 2634.329834,2484.554932 
	C2620.264893,2462.699707 2606.228516,2440.825928 2592.171387,2418.965820 
	C2578.474121,2397.664551 2564.778076,2376.362549 2551.059326,2355.075439 
	C2536.979004,2333.227539 2522.859863,2311.405029 2508.781494,2289.556152 
	C2495.064697,2268.269043 2481.375488,2246.964355 2467.679443,2225.664062 
	C2453.625000,2203.805664 2439.590088,2181.934326 2425.521729,2160.084717 
	C2411.813232,2138.794434 2398.037598,2117.546875 2384.355713,2096.239502 
	C2370.312988,2074.370361 2356.389160,2052.424805 2342.337646,2030.561646 
	C2328.646973,2009.259521 2314.858643,1988.020142 2301.115723,1966.751587 
	C2287.041260,1944.969849 2272.969727,1923.186035 2257.802002,1899.708130 
	C2243.889160,1919.680908 2232.020996,1938.857300 2219.096436,1959.063599 
M3162.968018,1849.369751 
	C3161.386719,1846.678223 3160.375000,1843.309570 3158.123291,1841.415039 
	C3149.465576,1834.130859 3140.500000,1827.200928 3131.487549,1820.352173 
	C3097.875000,1794.808716 3068.132812,1765.431274 3042.833008,1731.582642 
	C3036.854004,1723.583618 3030.598877,1715.784424 3024.276367,1708.052612 
	C3021.907227,1705.155029 3018.983398,1702.710938 3015.239990,1698.995728 
	C3006.950928,1709.570557 2999.457520,1718.781250 2992.339600,1728.273560 
	C2964.977295,1764.763184 2932.914062,1796.510376 2896.508789,1823.932007 
	C2889.594971,1829.139648 2882.704834,1834.391724 2876.024658,1839.891846 
	C2873.181396,1842.232544 2870.907715,1845.264893 2867.669434,1848.740479 
	C2887.047852,1864.192993 2905.857178,1877.959106 2923.201660,1893.373535 
	C2940.084229,1908.377563 2955.586914,1924.950928 2971.474854,1941.052856 
	C2987.711914,1957.508667 2999.334473,1977.977173 3016.938232,1995.426270 
	C3023.105713,1987.706787 3028.593506,1981.188110 3033.702881,1974.385132 
	C3063.903320,1934.172729 3099.082031,1898.983643 3139.434082,1868.949097 
	C3146.908447,1863.385742 3154.075684,1857.409546 3162.968018,1849.369751 
M2392.448486,1453.926025 
	C2386.175537,1448.972046 2379.919678,1443.996338 2373.626465,1439.068115 
	C2351.558594,1421.786865 2330.431396,1403.447388 2312.294189,1381.997192 
	C2299.826416,1367.252075 2288.052734,1351.921143 2275.903564,1336.905029 
	C2271.786621,1331.816528 2267.468994,1326.890259 2262.919678,1321.507202 
	C2251.232910,1330.790894 2244.278809,1342.266602 2236.214844,1352.676025 
	C2215.335938,1379.627930 2192.664795,1404.846680 2166.295898,1426.533447 
	C2152.408203,1437.955322 2137.982178,1448.721069 2123.965332,1459.989624 
	C2120.528809,1462.752686 2117.743164,1466.325684 2113.839844,1470.375366 
	C2132.929443,1485.698364 2151.672852,1499.555542 2169.006348,1514.995483 
	C2185.881104,1530.027222 2201.501709,1546.494507 2217.324707,1562.672241 
	C2233.476074,1579.185425 2245.150635,1599.617798 2262.921875,1616.808960 
	C2274.418213,1602.366455 2284.798828,1588.598267 2295.965576,1575.500732 
	C2307.189697,1562.336060 2318.668945,1549.300171 2331.009766,1537.200806 
	C2343.350342,1525.102051 2356.933350,1514.275024 2369.902344,1502.811646 
	C2382.722656,1491.479492 2397.999756,1483.010498 2410.423584,1468.863892 
	C2404.789551,1464.111206 2399.787354,1459.891846 2392.448486,1453.926025 
M1364.928955,1860.909912 
	C1391.946777,1881.548950 1419.027466,1902.212402 1441.698364,1927.732178 
	C1458.052246,1946.141113 1473.216797,1965.604370 1489.035767,1984.493530 
	C1491.821411,1987.820068 1495.218506,1990.634644 1498.058228,1993.416260 
	C1500.427124,1992.023071 1501.840210,1991.592163 1502.651367,1990.645508 
	C1506.112793,1986.606079 1509.461792,1982.465210 1512.734741,1978.269897 
	C1538.187378,1945.643799 1564.878784,1914.180420 1597.407593,1888.216309 
	C1610.945435,1877.410400 1624.614990,1866.769653 1638.142456,1855.951172 
	C1641.083740,1853.598999 1643.674072,1850.808105 1647.432129,1847.272827 
	C1632.754395,1835.522949 1619.371704,1824.697876 1605.868408,1814.025513 
	C1584.921631,1797.470215 1564.973389,1779.844116 1547.907593,1759.225464 
	C1533.892822,1742.293213 1520.279907,1725.029175 1506.361450,1708.016357 
	C1504.017334,1705.151123 1501.026245,1702.815063 1497.674316,1699.602051 
	C1482.219360,1718.653442 1467.465454,1736.642700 1452.934082,1754.809814 
	C1438.715210,1772.586548 1422.169678,1787.958618 1404.976440,1802.769653 
	C1387.467163,1817.853271 1367.946411,1830.579834 1351.728638,1846.422363 
	C1352.667847,1848.959351 1352.785645,1850.503662 1353.618408,1851.304199 
	C1356.490967,1854.065186 1359.612915,1856.566650 1364.928955,1860.909912 
z"/>
<path fill="#FEFFFF" opacity="1.000000" stroke="none" 
	d="
M2243.817871,3820.131592 
	C2175.666016,3714.126953 2108.189209,3609.401367 2040.766357,3504.641602 
	C1949.914917,3363.478271 1859.102539,3222.289551 1768.288330,3081.102539 
	C1765.416626,3076.637939 1762.710693,3072.066895 1760.075806,3067.786377 
	C1760.230713,3060.080322 1765.175781,3055.181885 1768.688110,3049.719971 
	C1827.061646,2958.943359 1885.549927,2868.240234 1943.947510,2777.479248 
	C2044.877930,2620.614258 2145.757812,2463.716797 2246.695557,2306.856689 
	C2249.867676,2301.926758 2253.443604,2297.256348 2258.058105,2290.730225 
	C2425.730957,2551.037109 2592.097412,2809.810059 2758.006348,3067.742188 
	C2756.688721,3078.311523 2750.317871,3084.695068 2745.746826,3091.820068 
	C2682.075928,3191.063965 2618.193848,3290.172363 2554.383789,3389.326904 
	C2460.651123,3534.978760 2366.937988,3680.643311 2273.199219,3826.291260 
	C2269.615723,3831.858154 2265.852295,3837.309326 2261.720459,3843.491211 
	C2252.669189,3838.027344 2250.479004,3828.180420 2243.817871,3820.131592 
z"/>
<path fill="#FEFEFF" opacity="1.000000" stroke="none" 
	d="
M3143.927246,2863.906738 
	C3205.033203,2769.255615 3265.389648,2675.839600 3325.788086,2582.450684 
	C3326.054443,2582.038818 3326.918457,2582.013428 3328.973145,2581.290039 
	C3331.342285,2584.435059 3334.236328,2587.808838 3336.620850,2591.510498 
	C3388.559814,2672.146240 3440.438477,2752.820801 3492.336914,2833.482910 
	C3524.773193,2883.896729 3557.053467,2934.413086 3589.804443,2984.621826 
	C3596.592041,2995.028076 3600.071289,3005.357178 3599.955566,3018.038818 
	C3599.401855,3078.671631 3600.947510,3139.342773 3599.428955,3199.942627 
	C3596.854004,3302.690674 3551.061768,3380.728760 3461.356934,3432.064453 
	C3452.718994,3437.007324 3443.438232,3440.854004 3434.354004,3444.985596 
	C3391.930664,3464.281250 3349.480225,3483.518066 3307.010010,3502.710693 
	C3302.867676,3504.582764 3298.523682,3506.008789 3294.599121,3507.516357 
	C3283.760010,3494.853760 3024.812988,3093.514404 3011.805420,3069.213135 
	C3055.313232,3001.629883 3099.246338,2933.385986 3143.927246,2863.906738 
z"/>
<path fill="#FEFEFE" opacity="1.000000" stroke="none" 
	d="
M1295.087891,3395.114746 
	C1270.524292,3433.215576 1246.767456,3470.119385 1222.702026,3507.502686 
	C1218.583862,3506.057617 1215.451416,3505.215332 1212.534546,3503.896484 
	C1165.204468,3482.496338 1117.772095,3461.315918 1070.625977,3439.517090 
	C1012.768372,3412.765869 970.181763,3370.264648 942.740723,3312.763184 
	C930.019714,3286.107422 922.513489,3258.004883 919.254883,3228.539307 
	C916.679810,3205.253418 917.116089,3181.995605 917.032166,3158.702637 
	C916.921631,3128.043701 917.449951,3097.374512 916.797791,3066.729248 
	C916.515686,3053.470947 919.967712,3042.364502 927.164001,3031.266113 
	C983.346375,2944.617920 1039.129761,2857.710693 1095.011963,2770.867920 
	C1128.179810,2719.323975 1161.289673,2667.742920 1194.469849,2616.206787 
	C1197.691528,2611.202881 1201.225708,2606.400391 1204.956665,2601.010498 
	C1211.556641,2603.571533 1213.397705,2609.662354 1216.393188,2614.302002 
	C1274.215088,2703.855225 1331.870117,2793.516113 1389.556885,2883.156494 
	C1424.891602,2938.063721 1460.235840,2992.964844 1495.533325,3047.895996 
	C1499.099243,3053.445557 1502.370728,3059.184082 1506.351440,3065.784424 
	C1483.688965,3103.021484 1459.713501,3138.988770 1436.445312,3175.392090 
	C1413.122803,3211.880859 1389.556396,3248.213623 1366.125488,3284.633057 
	C1342.696655,3321.049561 1319.303345,3357.489014 1295.087891,3395.114746 
z"/>
<path fill="#FEFEFE" opacity="1.000000" stroke="none" 
	d="
M1482.541260,3494.483154 
	C1532.644653,3417.331543 1581.929199,3341.377930 1631.267212,3265.459229 
	C1631.518311,3265.072510 1632.526611,3265.178223 1633.946533,3264.908936 
	C1635.375732,3266.524414 1637.354980,3268.253174 1638.720337,3270.376953 
	C1765.551880,3467.637939 1892.338257,3664.927979 2019.059692,3862.259521 
	C2019.644287,3863.169678 2019.254272,3864.705566 2019.318481,3865.951660 
	C2018.154663,3866.346680 2016.690552,3867.406982 2015.871826,3867.037842 
	C1819.820068,3778.549072 1623.811035,3689.965576 1427.824707,3601.332031 
	C1424.946899,3600.030518 1422.367310,3598.070068 1418.444336,3595.685303 
	C1428.193604,3577.251465 1439.835571,3561.169678 1450.430298,3544.474609 
	C1460.783081,3528.160645 1471.286621,3511.942627 1482.541260,3494.483154 
z"/>
<path fill="#FEFEFE" opacity="1.000000" stroke="none" 
	d="
M2504.113281,3864.116211 
	C2502.031006,3857.915771 2506.865479,3854.176758 2509.557129,3849.936035 
	C2528.825195,3819.577881 2548.310059,3789.356689 2567.769043,3759.119629 
	C2669.020996,3601.788818 2770.281006,3444.463623 2871.561035,3287.151123 
	C2875.482666,3281.060059 2879.639648,3275.120850 2883.270752,3269.729004 
	C2888.797852,3269.020996 2889.951172,3272.695557 2891.563232,3275.197510 
	C2958.997314,3379.869629 3026.356201,3484.590088 3093.684570,3589.330322 
	C3094.725586,3590.949707 3095.264404,3592.892090 3095.983154,3594.556885 
	C3094.324463,3601.181885 3088.234131,3601.724854 3083.696533,3603.796387 
	C3022.547852,3631.715332 2961.333740,3659.491455 2900.096191,3687.216064 
	C2803.694580,3730.860840 2707.285645,3774.489990 2610.831055,3818.017822 
	C2576.267090,3833.615967 2541.561523,3848.901367 2505.469971,3864.174316 
	C2504.019531,3864.019287 2504.113281,3864.116211 2504.113281,3864.116211 
z"/>
<path fill="#FEFEFE" opacity="1.000000" stroke="none" 
	d="
M2503.976562,3863.969971 
	C2503.417236,3864.703613 2502.900635,3865.486572 2502.383789,3866.269531 
	C2502.440918,3865.453857 2502.498047,3864.637939 2503.334229,3863.969238 
	C2504.113281,3864.116211 2504.019531,3864.019287 2503.976562,3863.969971 
z"/>
<path fill="#587E9A" opacity="1.000000" stroke="none" 
	d="
M3162.176270,1850.496826 
	C3154.075684,1857.409546 3146.908447,1863.385742 3139.434082,1868.949097 
	C3099.082031,1898.983643 3063.903320,1934.172729 3033.702881,1974.385132 
	C3028.593506,1981.188110 3023.105713,1987.706787 3016.938232,1995.426270 
	C2999.334473,1977.977173 2987.711914,1957.508667 2971.474854,1941.052856 
	C2955.586914,1924.950928 2940.084229,1908.377563 2923.201660,1893.373535 
	C2905.857178,1877.959106 2887.047852,1864.192993 2867.669434,1848.740479 
	C2870.907715,1845.264893 2873.181396,1842.232544 2876.024658,1839.891846 
	C2882.704834,1834.391724 2889.594971,1829.139648 2896.508789,1823.932007 
	C2932.914062,1796.510376 2964.977295,1764.763184 2992.339600,1728.273560 
	C2999.457520,1718.781250 3006.950928,1709.570557 3015.239990,1698.995728 
	C3018.983398,1702.710938 3021.907227,1705.155029 3024.276367,1708.052612 
	C3030.598877,1715.784424 3036.854004,1723.583618 3042.833008,1731.582642 
	C3068.132812,1765.431274 3097.875000,1794.808716 3131.487549,1820.352173 
	C3140.500000,1827.200928 3149.465576,1834.130859 3158.123291,1841.415039 
	C3160.375000,1843.309570 3161.386719,1846.678223 3162.176270,1850.496826 
z"/>
<path fill="#587E99" opacity="1.000000" stroke="none" 
	d="
M2393.616699,1454.799316 
	C2399.787354,1459.891846 2404.789551,1464.111206 2410.423584,1468.863892 
	C2397.999756,1483.010498 2382.722656,1491.479492 2369.902344,1502.811646 
	C2356.933350,1514.275024 2343.350342,1525.102051 2331.009766,1537.200806 
	C2318.668945,1549.300171 2307.189697,1562.336060 2295.965576,1575.500732 
	C2284.798828,1588.598267 2274.418213,1602.366455 2262.921875,1616.808960 
	C2245.150635,1599.617798 2233.476074,1579.185425 2217.324707,1562.672241 
	C2201.501709,1546.494507 2185.881104,1530.027222 2169.006348,1514.995483 
	C2151.672852,1499.555542 2132.929443,1485.698364 2113.839844,1470.375366 
	C2117.743164,1466.325684 2120.528809,1462.752686 2123.965332,1459.989624 
	C2137.982178,1448.721069 2152.408203,1437.955322 2166.295898,1426.533447 
	C2192.664795,1404.846680 2215.335938,1379.627930 2236.214844,1352.676025 
	C2244.278809,1342.266602 2251.232910,1330.790894 2262.919678,1321.507202 
	C2267.468994,1326.890259 2271.786621,1331.816528 2275.903564,1336.905029 
	C2288.052734,1351.921143 2299.826416,1367.252075 2312.294189,1381.997192 
	C2330.431396,1403.447388 2351.558594,1421.786865 2373.626465,1439.068115 
	C2379.919678,1443.996338 2386.175537,1448.972046 2393.616699,1454.799316 
z"/>
<path fill="#587E99" opacity="1.000000" stroke="none" 
	d="
M1363.784424,1860.038330 
	C1359.612915,1856.566650 1356.490967,1854.065186 1353.618408,1851.304199 
	C1352.785645,1850.503662 1352.667847,1848.959351 1351.728638,1846.422363 
	C1367.946411,1830.579834 1387.467163,1817.853271 1404.976440,1802.769653 
	C1422.169678,1787.958618 1438.715210,1772.586548 1452.934082,1754.809814 
	C1467.465454,1736.642700 1482.219360,1718.653442 1497.674316,1699.602051 
	C1501.026245,1702.815063 1504.017334,1705.151123 1506.361450,1708.016357 
	C1520.279907,1725.029175 1533.892822,1742.293213 1547.907593,1759.225464 
	C1564.973389,1779.844116 1584.921631,1797.470215 1605.868408,1814.025513 
	C1619.371704,1824.697876 1632.754395,1835.522949 1647.432129,1847.272827 
	C1643.674072,1850.808105 1641.083740,1853.598999 1638.142456,1855.951172 
	C1624.614990,1866.769653 1610.945435,1877.410400 1597.407593,1888.216309 
	C1564.878784,1914.180420 1538.187378,1945.643799 1512.734741,1978.269897 
	C1509.461792,1982.465210 1506.112793,1986.606079 1502.651367,1990.645508 
	C1501.840210,1991.592163 1500.427124,1992.023071 1498.058228,1993.416260 
	C1495.218506,1990.634644 1491.821411,1987.820068 1489.035767,1984.493530 
	C1473.216797,1965.604370 1458.052246,1946.141113 1441.698364,1927.732178 
	C1419.027466,1902.212402 1391.946777,1881.548950 1363.784424,1860.038330 
z"/>
</svg>