<svg xmlns="http://www.w3.org/2000/svg" viewBox="0 0 237.8 237.8"><defs><style>.cls-1{fill:#647888;}</style></defs><title>sello-cumbres</title><g id="Capa_2" data-name="Capa 2"><g id="Capa_1-2" data-name="Capa 1"><path class="cls-1" d="M118.9,0A118.9,118.9,0,1,0,237.8,118.9,118.9,118.9,0,0,0,118.9,0ZM213,182.35A114.08,114.08,0,0,1,182.35,213a113.37,113.37,0,0,1-126.9,0,114.08,114.08,0,0,1-30.66-30.66,113.37,113.37,0,0,1,0-126.9A114.08,114.08,0,0,1,55.45,24.79a113.37,113.37,0,0,1,126.9,0A114.08,114.08,0,0,1,213,55.45a113.37,113.37,0,0,1,0,126.9Z"/><path class="cls-1" d="M40.47,164.48c-.48-1.55-.79-2.85.39-3.53s2.1,0,2.78,1.17.81,2.47-.4,3.26l1.31,2.28c2.49-1.44,2.45-4.31,1.12-6.6s-3.77-3.68-6.27-2.23S37.46,163,38.06,165c.49,1.62,1,3.13-.17,3.83-1,.6-2.26-.09-2.94-1.27a2.91,2.91,0,0,1,.94-4.18l-1.3-2.25c-3,1.75-3,5.06-1.55,7.56s3.86,3.72,6.29,2.32C42.17,169.31,41,166.23,40.47,164.48Z"/><polygon class="cls-1" points="51.18 173.93 55.6 179.11 57.46 177.52 51.34 170.36 40.67 179.47 47.03 186.92 48.89 185.34 44.22 179.86 46.83 177.63 50.9 182.41 52.76 180.82 48.69 176.05 51.18 173.93"/><polygon class="cls-1" points="70.2 188.39 60.57 194.51 64.04 183.64 61.42 181.62 52.85 192.73 54.74 194.19 60.78 186.36 57.6 196.39 59.45 197.83 68.35 192.21 62.31 200.03 64.25 201.53 72.82 190.41 70.2 188.39"/><path class="cls-1" d="M83.55,196l-5.32-2.52-6,12.67,2.34,1.11,2.22-4.67,2.75,1.3a4.48,4.48,0,0,0,6.36-2C86.87,199.72,86.32,197.27,83.55,196Zm-.1,4.85a1.92,1.92,0,0,1-2.82.89l-2.82-1.34,1.71-3.61,2.91,1.39A1.85,1.85,0,0,1,83.45,200.8Z"/><polygon class="cls-1" points="89.06 213.17 98.53 215.69 99.16 213.33 92.21 211.48 93.09 208.16 99.15 209.78 99.78 207.41 93.72 205.8 94.56 202.64 101.14 204.4 101.77 202.03 92.67 199.61 89.06 213.17"/><path class="cls-1" d="M117.61,207.86c.15-2-1.19-4.19-4.37-4.43l-5.76-.42-1,14,2.58.19.41-5.58,2.36.18,3.08,5.84,3,.22-3.35-6.32A4,4,0,0,0,117.61,207.86Zm-4.9,1.61-3.1-.24.27-3.59,3.3.24c1.44.11,1.89,1,1.83,1.85A1.94,1.94,0,0,1,112.71,209.47Z"/><path class="cls-1" d="M135.64,202l-2.33,14.87,2.7-.59.47-3.29,5.8-1.26,1.8,2.79,2.78-.61-8.32-12.55Zm1.2,8.41.84-5.84,3.2,5Z"/><polygon class="cls-1" points="155.6 207.99 151.04 197.34 148.64 198.37 154.17 211.27 162.68 207.62 161.72 205.37 155.6 207.99"/><polygon class="cls-1" points="170.01 189.82 168.72 187.74 158.74 193.95 160.04 196.03 163.9 193.62 170.03 203.46 172.22 202.09 166.09 192.25 170.01 189.82"/><rect class="cls-1" x="176.87" y="181.97" width="2.59" height="14.03" transform="translate(-79.91 159.68) rotate(-40.21)"/><path class="cls-1" d="M193.33,175.71,186.79,170,185.11,172l6.63,5.76c1.6,1.39,1.58,2.94.4,4.3s-2.95,1.63-4.62.19l-6.45-5.6-1.69,1.95,6.54,5.68c2.92,2.54,5.85,2,8.05-.53S196.24,178.23,193.33,175.71Z"/><path class="cls-1" d="M204,161.29c-2.85-1.64-4.94.91-6.17,2.25s-2.07,2.12-3.26,1.44-1.06-1.81-.38-3,1.74-1.93,3-1.28l1.31-2.28c-2.49-1.43-4.95,0-6.27,2.34s-1.29,5.1,1.21,6.54,4.59-.41,6-1.9c1.15-1.24,2.19-2.47,3.4-1.77,1.05.6,1.05,2,.38,3.17a2.91,2.91,0,0,1-4.09,1.28l-1.3,2.26c3,1.75,5.89,0,7.32-2.45S206.48,162.69,204,161.29Z"/><path class="cls-1" d="M43.41,68.32c4.24,3.55,10.77,4.47,15.12-.71,3.18-3.8,3.82-9.23-.65-13l-3.21,3.82a4,4,0,0,1,.42,6c-2.38,2.84-6.05,2.11-8.53,0s-3.68-5.4-1.4-8.12c1.57-1.87,4-2.46,5.49-1.16l3.23-3.85c-4.1-3-8.86-2-12.17,2C37.25,58.63,39.2,64.78,43.41,68.32Z"/><path class="cls-1" d="M76,52.22c4.17-2.69,5.64-7.23,2.54-12l-7-10.81-4.12,2.66L74.53,43c1.44,2.22.88,3.94-1,5.15-2,1.31-4,1-5.52-1.33l-6.9-10.66L57,38.85l7,10.8C67.09,54.5,71.89,54.9,76,52.22Z"/><polygon class="cls-1" points="93.3 43.01 90.4 31.4 97.47 41.97 101.53 40.96 102.8 28.3 105.7 39.92 110.28 38.77 105.18 18.35 99.66 19.73 97.89 34.86 89.22 22.34 83.68 23.72 88.78 44.14 93.3 43.01"/><path class="cls-1" d="M134.17,33.68a4.9,4.9,0,0,0-4-5.21A4.36,4.36,0,0,0,134,24.32a5.46,5.46,0,0,0-5.42-5.86l-9.92-.73-1.55,21,9.63.71C131.24,39.77,133.94,36.74,134.17,33.68Zm-11-10.91,4.05.3c1.35.1,1.78.83,1.72,1.64a1.7,1.7,0,0,1-2.08,1.56L123,26Zm-.86,11.61.3-4,4.46.33c1.62.12,2.22,1.1,2.14,2.06s-.84,2-2.67,1.88Z"/><path class="cls-1" d="M146.66,35.64l2.39.9,1.51,9,5.44,2-2-10.39a6,6,0,0,0,5.65-4c1.06-2.85.21-6.69-4.33-8.38l-8.65-3.22-7.34,19.73L143.91,43Zm3-7.94,3.91,1.46c1.5.55,1.72,1.6,1.39,2.47s-1.45,1.58-3,1l-3.61-1.34Z"/><polygon class="cls-1" points="175.22 55.37 167.04 49.4 169.13 46.53 176.27 51.74 179.07 47.91 171.93 42.7 173.9 40 181.67 45.67 184.44 41.89 172.66 33.28 160.25 50.28 172.44 59.19 175.22 55.37"/><path class="cls-1" d="M184.46,61.32l-3.18-3.93c-4.05,3.51-3.28,8.62-.53,12s6.92,4.69,10.31,1.94c3.9-3.16,1.29-7.58.09-10s-1.4-3.55-.4-4.36,2.27-.45,3.33.86c.93,1.15,1.34,2.67.2,3.83l3.19,4c3.31-3,2.67-7.42.15-10.53s-6.63-4.69-10.16-1.83-1.94,6.72-.54,9.64c1.13,2.3,1.85,3.77.73,4.68s-2.33.37-3.47-1C182.84,64.91,182.62,63,184.46,61.32Z"/><path class="cls-1" d="M188.7,118.9a69.83,69.83,0,1,0-70.95,69.81l0,.07.11-.07h1A69.82,69.82,0,0,0,188.7,118.9Zm-134.23,0A64.41,64.41,0,1,1,178.62,143l-17.89-27.81-17.14,26.65-24.5-38.07L94.31,142.28,77.4,116,59.48,143.85A63.9,63.9,0,0,1,54.47,118.9Zm18.86,45.54a64.18,64.18,0,0,1-11.1-14.86L77.4,126l13.7,21.28-13.54,21Q75.37,166.48,73.33,164.44Zm20.48,13.81a64,64,0,0,1-11.94-6.62l12.44-19.34,19.85,30.85A63.8,63.8,0,0,1,93.81,178.25Zm25,2.1L97.53,147.28l21.56-33.51,21.28,33.07Zm25.13-2.1a63.78,63.78,0,0,1-20.49,4.9l20.14-31.31,12.59,19.58A64.22,64.22,0,0,1,143.94,178.25Zm16.53-10.17L146.8,146.84l13.93-21.64,15.2,23.62a64.24,64.24,0,0,1-11.51,15.62Q162.52,166.36,160.47,168.08Z"/><path class="cls-1" d="M86.29,96.27a8.24,8.24,0,0,1,.85.76c.25.25.48.49.67.7s.37.42.5.58l.89,1.13.89-1.13A15.3,15.3,0,0,1,91.24,97l.25-.24.3-.27c.2-.17.41-.35.65-.53l1.13-.89h0l-1.13-.89a12.29,12.29,0,0,1-1.31-1.16l-.26-.26q-.37-.4-.78-.93l-.89-1.13-.89,1.13c-.28.35-.53.65-.79.93l-.25.26c-.28.28-.58.56-.94.86l-.37.3-1.14.89h0L86,96Z"/><path class="cls-1" d="M116.48,81.53l.29.25L117,82l.68.71c.19.22.36.41.49.58l.89,1.13.89-1.13.22-.27c.25-.29.57-.63.93-1a13.44,13.44,0,0,1,1.2-1l1.14-.89-1.14-.89A13.37,13.37,0,0,1,121,78.06a9.15,9.15,0,0,1-.65-.71q-.19-.22-.39-.48l-.89-1.14-.7.89-.19.25-.27.33c-.18.22-.35.41-.52.6l-.25.26a14.65,14.65,0,0,1-1.31,1.16l-1.14.89,1.14.89C116.07,81.18,116.29,81.36,116.48,81.53Z"/><path class="cls-1" d="M146.14,96l.34.27a11,11,0,0,1,.85.76c.37.38.69.72.94,1l.22.27.89,1.13.89-1.13A15.71,15.71,0,0,1,151.43,97a1.59,1.59,0,0,1,.13-.13l.42-.38c.19-.17.41-.35.64-.53l1.14-.89h0l-1.14-.89-.53-.44a9.23,9.23,0,0,1-.78-.72c-.18-.18-.36-.38-.55-.59s-.32-.38-.49-.6l-.89-1.13-.89,1.13c-.27.35-.53.65-.78.93-.09.09-.17.18-.26.26-.27.28-.58.56-.93.86l-.38.3-1.14.89h0Z"/></g></g></svg>